/* XPM */
static char *b5c4cb4a8e32441ecfc861f5bcb64a97[] = {
/* columns rows colors chars-per-pixel */
"64 64 3 1 ",
"  c #6D6E71",
". c #0F75BC",
"X c None",
/* pixels */
"XXXXXXXXXXXXXXXXXXXXXXXXXX            XXXXXXXXXXXXXXXXXXXXXXXXXX",
"XXXXXXXXXXXXXXXXXXXXXX                    XXXXXXXXXXXXXXXXXXXXXX",
"XXXXXXXXXXXXXXXXXXXX                        XXXXXXXXXXXXXXXXXXXX",
"XXXXXXXXXXXXXXXXX                              XXXXXXXXXXXXXXXXX",
"XXXXXXXXXXXXXXXX                                XXXXXXXXXXXXXXXX",
"XXXXXXXXXXXXXX                                    XXXXXXXXXXXXXX",
"XXXXXXXXXXXXX                                      XXXXXXXXXXXXX",
"XXXXXXXXXXX               XXXXXXXXXXXX               XXXXXXXXXXX",
"XXXXXXXXXX             XXXXXXXXXXXXXXXXXX             XXXXXXXXXX",
"XXXXXXXXX           XXXXXXXXXXXXXXXXXXXXXXXX           XXXXXXXXX",
"XXXXXXXX           XXXXXXXXXXXXXXXXXXXXXXXXXX           XXXXXXXX",
"XXXXXXXX         XXXXXXXXXXXXXXXXXXXXXXXXXXXXXX          XXXXXXX",
"XXXXXXX         XXXXXXXXXXXXXXXXXXXXXXXXXXXXXXXX         XXXXXXX",
"XXXXXX         XXXXXXXXXXXXXXXXXXXXXXXXXXXXXXXXXX         XXXXXX",
"XXXXX         XXXXXXXXXXXXXXXXXXXXXXXXXXXXXXXXXXXX         XXXXX",
"XXXXX        XXXXXXXXXXXXXXXXXXXXXXXXXXXXXXXXXXXXXX        XXXXX",
"XXXX        XXXXXXXXXXXXXXXXXXXXXXXXXXXXXXXXXXXXXXXX        XXXX",
"XXXX       XXXXXXXXXXXXXXXXXXXXXXXXXXXXXXXXXXXXXXXXXX       XXXX",
"XXX        XXXXXXXXXXXXXXXXXXXXXXXXXXXXXXXXXXXXXXXXXX        XXX",
"XXX       XXXXXXXXXXXXXXXXXXXXXXXXXXXXXXXXXXXXXXXXXXXX       XXX",
"XX       XXXXXXXXXXXXXXXXXXXXXXXXXXXXXXXXXXXXXXXXXXXXXX       XX",
"XX       XXXXXXXXXXXXXXXXXXXXXXXXXXXXXXXXXXXXXXXXXXXXXX       XX",
"X        XXXXXXXXXXXXXXXXXXXXXXXXXXXXXXXXXXXXXXXXXXXXXX        X",
"X       XXXXXXXXXXXXXX..XXXXXXXXXX..XXXXX.XXXXXXXXXXXXXX       X",
"X       XXX....XXXXXXX...XXXXXXXX....X........XXXXXXXXXX       X",
"X       XXX....XXXXXXX...X.XXXXXX....X.........XXXXXXXXX       X",
"X      XXXX.....XXXXXX...X..XXXX....X....X.....XXXXXXXXXX      X",
"       XXXX......XXXXX...X..XXXX...X..XXXXXXX.XXXXXXXXXXX       ",
"       XXXX.......XXXX...X...XX...XX.XXXXXXXXXXXXXXXXXXXX       ",
"       XXXX...X....XXX...X...X....X..XXXXXXXXXXXXXXXXXXXX       ",
"       XXXX...XX...XXX...XX......X..XXXXXX  XXXXXX  XXXXX       ",
"       XXXX...XX....XX...XX.....XX..XXXXX  X X    X  XXXX       ",
"       XXXX...XXX....X...XXX....X...XXXXX XXX     XX XXXX       ",
"       XXXX...XXXX.......XXX...XX...XXXXX  X X    XX XXXX       ",
"       XXXX...XXXXX......XXX...XX....XXXXX   X XXXXX XXXX       ",
"       XXXX...XXXXXX.....XXX...XXX...XXXXXXXXXXXXXXXXXXXX       ",
"       XXXX...XXXXXX.....XXX...XXX....XXXXXXX.XXXXXXXXXXX       ",
"X      XXXX...XXXXXXX....XXX...XXXX.....XXX....XXXXXXXXXX      X",
"X       XXX...XXXXXXXX...XXX...XXXXX...........XXXXXXXXX       X",
"X       XXX...XXXXXXXXX..XXX...XXXXXX.........XXXXXXXXXX       X",
"X       XXXXXXXXXXXXXXXXXXXXXXXXXXXXXXXXX.XXXXXXXXXXXXXX       X",
"X        XXXXXXXXXXXXXXXXXXXXXXXXXXXXXXXXXXXXXXXXXXXXXX        X",
"XX       XXXXXXXXXXXXXXXXXXXXXXXXXXXXXXXXXXXXXXXXXXXXXX       XX",
"XX       XXXXXXXXXXXXXXXXXXXXXXXXXXXXXXXXXXXXXXXXXXXXXX       XX",
"XXX       XXXXXXXXXXXXXXXXXXXXXXXXXXXXXXXXXXXXXXXXXXXX       XXX",
"XXX        XXXXXXXXXXXXXXXXXXXXXXXXXXXXXXXXXXXXXXXXXX        XXX",
"XXXX       XXXXXXXXXXXXXXXXXXXXXXXXXXXXXXXXXXXXXXXXXX       XXXX",
"XXXX        XXXXXXXXXXXXXXXXXXXXXXXXXXXXXXXXXXXXXXXX        XXXX",
"XXXXX        XXXXXXXXXXXXXXXXXXXXXXXXXXXXXXXXXXXXXX        XXXXX",
"XXXXX         XXXXXXXXXXXXXXXXXXXXXXXXXXXXXXXXXXXX         XXXXX",
"XXXXXX         XXXXXXXXXXXXXXXXXXXXXXXXXXXXXXXXXX         XXXXXX",
"XXXXXXX         XXXXXXXXXXXXXXXXXXXXXXXXXXXXXXXX         XXXXXXX",
"XXXXXXXX         XXXXXXXXXXXXXXXXXXXXXXXXXXXXXX         XXXXXXXX",
"XXXXXXXX           XXXXXXXXXXXXXXXXXXXXXXXXXX           XXXXXXXX",
"XXXXXXXXX           XXXXXXXXXXXXXXXXXXXXXXXX           XXXXXXXXX",
"XXXXXXXXXX             XXXXXXXXXXXXXXXXXX             XXXXXXXXXX",
"XXXXXXXXXXXX              XXXXXXXXXXXX              XXXXXXXXXXXX",
"XXXXXXXXXXXXX                                      XXXXXXXXXXXXX",
"XXXXXXXXXXXXXX                                    XXXXXXXXXXXXXX",
"XXXXXXXXXXXXXXXX                                XXXXXXXXXXXXXXXX",
"XXXXXXXXXXXXXXXXXX                            XXXXXXXXXXXXXXXXXX",
"XXXXXXXXXXXXXXXXXXXX                        XXXXXXXXXXXXXXXXXXXX",
"XXXXXXXXXXXXXXXXXXXXXX                    XXXXXXXXXXXXXXXXXXXXXX",
"XXXXXXXXXXXXXXXXXXXXXXXXXXX          XXXXXXXXXXXXXXXXXXXXXXXXXXX"
};
