/* XPM */
static char *_72c0a9e6d8841e1ffd248d2409916c8[] = {
/* columns rows colors chars-per-pixel */
"32 32 3 1 ",
"  c #6D6E71",
". c #0F75BC",
"X c None",
/* pixels */
"XXXXXXXXXXXX        XXXXXXXXXXXX",
"XXXXXXXXX              XXXXXXXXX",
"XXXXXXX                  XXXXXXX",
"XXXXXX        XXXX        XXXXXX",
"XXXXX      XXXXXXXXXX      XXXXX",
"XXXX     XXXXXXXXXXXXXX     XXXX",
"XXX     XXXXXXXXXXXXXXXX     XXX",
"XX     XXXXXXXXXXXXXXXXXX     XX",
"XX    XXXXXXXXXXXXXXXXXXXX    XX",
"X    XXXXXXXXXXXXXXXXXXXXXX    X",
"X    XXXXXXXXXXXXXXXXXXXXXX    X",
"X   XXXXXXXXXXXXXXXXXXXXXXXX   X",
"    XX.XXXX..XXXX.X....XXXXX    ",
"    XX..XXX.X.XX....XX.XXXXX    ",
"   XXX...XX.X....XXXXXXXXXXXX   ",
"   XXX.X..X.X...X.XXX XX  XXX   ",
"   XXX.XX...XX..X.XX X   X XX   ",
"   XXX.XXX..XX..X.XXX XXXXXXX   ",
"    XX.XXX..XX..X..XXX.XXXXX    ",
"    XX.XXXX.XX..XX.....XXXXX    ",
"X   XXXXXXXXXXXXXXXXXXXXXXXX   X",
"X    XXXXXXXXXXXXXXXXXXXXXX    X",
"X    XXXXXXXXXXXXXXXXXXXXXX    X",
"XX    XXXXXXXXXXXXXXXXXXXX    XX",
"XX     XXXXXXXXXXXXXXXXXX     XX",
"XXX     XXXXXXXXXXXXXXXX     XXX",
"XXXX     XXXXXXXXXXXXXX     XXXX",
"XXXXX      XXXXXXXXXX      XXXXX",
"XXXXXX        XXXX        XXXXXX",
"XXXXXXX                  XXXXXXX",
"XXXXXXXXX              XXXXXXXXX",
"XXXXXXXXXXXX        XXXXXXXXXXXX"
};
